<svg width="24" height="24" viewBox="0 0 24 24" fill="none" xmlns="http://www.w3.org/2000/svg">
<g opacity="0.48">
<rect y="24" width="24" height="24" rx="12" transform="rotate(-90 0 24)" fill="#1B80DB"/>
<path opacity="0.8" fill-rule="evenodd" clip-rule="evenodd" d="M10.0525 12.0009L14.5503 7.46527C14.8832 7.12914 14.8832 6.58702 14.5503 6.25089C14.3917 6.09032 14.1753 6 13.9496 6C13.724 6 13.5076 6.09032 13.349 6.25089L8.25046 11.3928C7.9165 11.7286 7.9165 12.2714 8.25046 12.6072L13.3488 17.7491C13.5076 17.9097 13.724 18 13.9496 18C14.1753 18 14.3917 17.9097 14.5505 17.7491C14.8832 17.4129 14.8832 16.8708 14.5501 16.5347L10.0525 12.0009Z" fill="white"/>
</g>
</svg>
