<svg width="24" height="24" viewBox="0 0 24 24" fill="none" xmlns="http://www.w3.org/2000/svg">
<path d="M6.57129 2.75C7.31425 2.75 7.83235 2.75039 8.2373 2.7793C8.53566 2.80061 8.74055 2.83609 8.89844 2.88477L9.04297 2.9375C9.49809 3.13612 9.8727 3.47913 10.1113 3.91016L10.2051 4.10059C10.2818 4.27661 10.3349 4.50764 10.3633 4.90527C10.3922 5.31025 10.3926 5.82822 10.3926 6.57129C10.3926 7.31426 10.3922 7.83235 10.3633 8.2373C10.342 8.53571 10.3065 8.74054 10.2578 8.89844L10.2051 9.04297C10.0064 9.49812 9.66352 9.87273 9.23242 10.1113L9.04297 10.2051C8.86691 10.2819 8.63514 10.3349 8.2373 10.3633C7.83235 10.3922 7.31426 10.3926 6.57129 10.3926C5.82822 10.3926 5.31025 10.3922 4.90527 10.3633C4.6067 10.3419 4.40207 10.3065 4.24414 10.2578L4.10059 10.2051C3.64525 10.0064 3.2699 9.66367 3.03125 9.23242L2.9375 9.04297C2.86069 8.86691 2.80772 8.63514 2.7793 8.2373C2.75039 7.83235 2.75 7.31425 2.75 6.57129C2.75 5.82823 2.75037 5.31025 2.7793 4.90527C2.80062 4.60675 2.83605 4.40206 2.88477 4.24414L2.9375 4.10059C3.13613 3.64533 3.479 3.26991 3.91016 3.03125L4.10059 2.9375C4.2766 2.86077 4.50772 2.8077 4.90527 2.7793C5.31025 2.75037 5.82823 2.75 6.57129 2.75Z" stroke="white" stroke-width="1.5"/>
<path d="M6.57129 13.6074C7.31425 13.6074 7.83235 13.6078 8.2373 13.6367C8.53566 13.658 8.74055 13.6935 8.89844 13.7422L9.04297 13.7949C9.49809 13.9935 9.8727 14.3365 10.1113 14.7676L10.2051 14.958C10.2818 15.134 10.3349 15.3651 10.3633 15.7627C10.3922 16.1677 10.3926 16.6856 10.3926 17.4287C10.3926 18.1717 10.3922 18.6898 10.3633 19.0947C10.342 19.3931 10.3065 19.598 10.2578 19.7559L10.2051 19.9004C10.0064 20.3555 9.66352 20.7301 9.23242 20.9688L9.04297 21.0625C8.86691 21.1393 8.63514 21.1923 8.2373 21.2207C7.83235 21.2496 7.31426 21.25 6.57129 21.25C5.82822 21.25 5.31025 21.2496 4.90527 21.2207C4.6067 21.1994 4.40207 21.164 4.24414 21.1152L4.10059 21.0625C3.64525 20.8638 3.2699 20.5211 3.03125 20.0898L2.9375 19.9004C2.86069 19.7243 2.80772 19.4926 2.7793 19.0947C2.75039 18.6898 2.75 18.1717 2.75 17.4287C2.75 16.6857 2.75037 16.1677 2.7793 15.7627C2.80062 15.4642 2.83605 15.2595 2.88477 15.1016L2.9375 14.958C3.13613 14.5028 3.479 14.1273 3.91016 13.8887L4.10059 13.7949C4.2766 13.7182 4.50772 13.6651 4.90527 13.6367C5.31025 13.6078 5.82823 13.6074 6.57129 13.6074Z" stroke="white" stroke-width="1.5"/>
<path d="M17.4285 2.75C18.1714 2.75 18.6895 2.75039 19.0945 2.7793C19.3928 2.80061 19.5977 2.83609 19.7556 2.88477L19.9001 2.9375C20.3552 3.13612 20.7299 3.47913 20.9685 3.91016L21.0622 4.10059C21.139 4.27661 21.192 4.50764 21.2204 4.90527C21.2494 5.31025 21.2497 5.82822 21.2497 6.57129C21.2497 7.31426 21.2494 7.83235 21.2204 8.2373C21.1991 8.53571 21.1637 8.74054 21.115 8.89844L21.0622 9.04297C20.8636 9.49812 20.5207 9.87273 20.0896 10.1113L19.9001 10.2051C19.7241 10.2819 19.4923 10.3349 19.0945 10.3633C18.6895 10.3922 18.1714 10.3926 17.4285 10.3926C16.6854 10.3926 16.1674 10.3922 15.7624 10.3633C15.4639 10.3419 15.2592 10.3065 15.1013 10.2578L14.9577 10.2051C14.5024 10.0064 14.1271 9.66367 13.8884 9.23242L13.7947 9.04297C13.7178 8.86691 13.6649 8.63514 13.6365 8.2373C13.6076 7.83235 13.6072 7.31425 13.6072 6.57129C13.6072 5.82823 13.6075 5.31025 13.6365 4.90527C13.6578 4.60675 13.6932 4.40206 13.7419 4.24414L13.7947 4.10059C13.9933 3.64533 14.3362 3.26991 14.7673 3.03125L14.9577 2.9375C15.1338 2.86077 15.3649 2.8077 15.7624 2.7793C16.1674 2.75037 16.6854 2.75 17.4285 2.75Z" stroke="white" stroke-width="1.5"/>
<path d="M17.4285 13.6074C18.1714 13.6074 18.6895 13.6078 19.0945 13.6367C19.3928 13.658 19.5977 13.6935 19.7556 13.7422L19.9001 13.7949C20.3553 13.9935 20.7299 14.3365 20.9685 14.7676L21.0623 14.958C21.139 15.134 21.1921 15.3651 21.2205 15.7627C21.2494 16.1677 21.2498 16.6856 21.2498 17.4287C21.2498 18.1717 21.2494 18.6898 21.2205 19.0947C21.1991 19.3931 21.1637 19.598 21.115 19.7559L21.0623 19.9004C20.8636 20.3555 20.5207 20.7301 20.0896 20.9688L19.9001 21.0625C19.7241 21.1393 19.4923 21.1923 19.0945 21.2207C18.6895 21.2496 18.1714 21.25 17.4285 21.25C16.6854 21.25 16.1674 21.2496 15.7625 21.2207C15.4639 21.1994 15.2592 21.164 15.1013 21.1152L14.9578 21.0625C14.5024 20.8638 14.1271 20.5211 13.8884 20.0898L13.7947 19.9004C13.7179 19.7243 13.6649 19.4926 13.6365 19.0947C13.6076 18.6898 13.6072 18.1717 13.6072 17.4287C13.6072 16.6857 13.6076 16.1677 13.6365 15.7627C13.6578 15.4642 13.6932 15.2595 13.7419 15.1016L13.7947 14.958C13.9933 14.5028 14.3362 14.1273 14.7673 13.8887L14.9578 13.7949C15.1338 13.7182 15.3649 13.6651 15.7625 13.6367C16.1674 13.6078 16.6854 13.6074 17.4285 13.6074Z" stroke="white" stroke-width="1.5"/>
</svg>
