<svg width="17" height="22" viewBox="0 0 17 22" fill="none" xmlns="http://www.w3.org/2000/svg">
<path d="M13.6663 1.00049H2.99994C1.8954 1.00049 0.999992 1.89589 0.999992 3.00044V19C0.999992 20.1045 1.8954 21 2.99994 21H13.6663C14.7709 21 15.6663 20.1045 15.6663 19V3.00044C15.6663 1.89589 14.7709 1.00049 13.6663 1.00049Z" stroke="#787486"/>
<path d="M5.6665 11.0012L10.9997 5.66797" stroke="#787486" stroke-linecap="round"/>
<path d="M6.33315 7.00127C6.70133 7.00127 6.9998 6.7028 6.9998 6.33462C6.9998 5.96644 6.70133 5.66797 6.33315 5.66797C5.96497 5.66797 5.6665 5.96644 5.6665 6.33462C5.6665 6.7028 5.96497 7.00127 6.33315 7.00127Z" stroke="#787486"/>
<path d="M10.3331 11.0008C10.7013 11.0008 10.9997 10.7023 10.9997 10.3341C10.9997 9.96595 10.7013 9.66748 10.3331 9.66748C9.96491 9.66748 9.66644 9.96595 9.66644 10.3341C9.66644 10.7023 9.96491 11.0008 10.3331 11.0008Z" stroke="#787486"/>
<path d="M4.3332 15.0005H12.333M4.3332 17.6671H12.333" stroke="#787486" stroke-linecap="round"/>
</svg>
