<?xml version="1.0" encoding="UTF-8" standalone="no" ?>
<!DOCTYPE svg PUBLIC "-//W3C//DTD SVG 1.1//EN" "http://www.w3.org/Graphics/SVG/1.1/DTD/svg11.dtd">
<svg xmlns="http://www.w3.org/2000/svg" xmlns:xlink="http://www.w3.org/1999/xlink" version="1.1" width="1080" height="1080" viewBox="0 0 1080 1080" xml:space="preserve">
<desc>Created with Fabric.js 5.2.4</desc>
<defs>
</defs>
<g transform="matrix(1 0 0 1 540 540)" id="05056b48-98b4-4f9d-ac61-276f16f355b9"  >
<rect style="stroke: none; stroke-width: 1; stroke-dasharray: none; stroke-linecap: butt; stroke-dashoffset: 0; stroke-linejoin: miter; stroke-miterlimit: 4; fill: rgb(255,255,255); fill-rule: nonzero; opacity: 1; visibility: hidden;" vector-effect="non-scaling-stroke"  x="-540" y="-540" rx="0" ry="0" width="1080" height="1080" />
</g>
<g transform="matrix(1 0 0 1 540 540)" id="329ccdf5-5b6b-45e3-a84e-8b44e38bfe57"  >
</g>
<g transform="matrix(1 0 0 1 540 540)" id="f1dfd0e4-8627-4324-8145-f85c3f3e7637"  >
<path style="stroke: rgb(211,211,211); stroke-width: 0; stroke-dasharray: none; stroke-linecap: butt; stroke-dashoffset: 0; stroke-linejoin: miter; stroke-miterlimit: 4; fill: rgb(211,211,211); fill-rule: nonzero; opacity: 1;" vector-effect="non-scaling-stroke"  transform=" translate(-7, -32.35)" d="M 13 64.7 C 13.3866 64.7 13.7 64.3866 13.7 64 C 13.7 63.6134 13.3866 63.3 13 63.3 L 13 64.7 Z M 1 0 L 0.3 0 L 0.3 53.2951 L 1 53.2951 L 1.7 53.2951 L 1.7 0 L 1 0 Z M 1 53.2951 L 0.3 53.2951 C 0.3 58.1048 1.30961 61.0286 3.15174 62.7189 C 4.98655 64.4024 7.47907 64.7 10 64.7 L 10 64 L 10 63.3 C 7.52093 63.3 5.51345 62.9859 4.09826 61.6873 C 2.69039 60.3955 1.7 57.9668 1.7 53.2951 L 1 53.2951 Z M 10 64 L 10 64.7 L 13 64.7 L 13 64 L 13 63.3 L 10 63.3 L 10 64 Z" stroke-linecap="round" />
</g>
<g transform="matrix(NaN NaN NaN NaN 0 0)"  >
<g style=""   >
</g>
</g>
<g transform="matrix(NaN NaN NaN NaN 0 0)"  >
<g style=""   >
</g>
</g>
<g transform="matrix(NaN NaN NaN NaN 0 0)"  >
<g style=""   >
</g>
</g>
<g transform="matrix(NaN NaN NaN NaN 0 0)"  >
<g style=""   >
</g>
</g>
</svg>